<mxfile host="Electron" agent="Mozilla/5.0 (Windows NT 10.0; Win64; x64) AppleWebKit/537.36 (KHTML, like Gecko) draw.io/26.2.2 Chrome/134.0.6998.178 Electron/35.1.2 Safari/537.36" version="26.2.2" pages="2">
  <diagram id="vnUM_jBd9nJYgGZ1f72k" name="Trang-1">
    <mxGraphModel dx="2213" dy="626" grid="1" gridSize="10" guides="1" tooltips="1" connect="1" arrows="1" fold="1" page="1" pageScale="1" pageWidth="1169" pageHeight="827" math="0" shadow="0">
      <root>
        <mxCell id="0" />
        <mxCell id="1" parent="0" />
        <mxCell id="yE_XQOZgxl-4xmmyG7Xw-6" value="" style="edgeStyle=orthogonalEdgeStyle;rounded=0;orthogonalLoop=1;jettySize=auto;html=1;" parent="1" source="yE_XQOZgxl-4xmmyG7Xw-1" target="yE_XQOZgxl-4xmmyG7Xw-5" edge="1">
          <mxGeometry relative="1" as="geometry" />
        </mxCell>
        <mxCell id="yE_XQOZgxl-4xmmyG7Xw-9" value="" style="edgeStyle=orthogonalEdgeStyle;rounded=0;orthogonalLoop=1;jettySize=auto;html=1;" parent="1" source="yE_XQOZgxl-4xmmyG7Xw-1" target="yE_XQOZgxl-4xmmyG7Xw-8" edge="1">
          <mxGeometry relative="1" as="geometry" />
        </mxCell>
        <mxCell id="yE_XQOZgxl-4xmmyG7Xw-1" value="VanPhongDaiDien" style="rounded=1;whiteSpace=wrap;html=1;" parent="1" vertex="1">
          <mxGeometry x="-60" y="50" width="120" height="60" as="geometry" />
        </mxCell>
        <mxCell id="yE_XQOZgxl-4xmmyG7Xw-21" style="edgeStyle=orthogonalEdgeStyle;rounded=0;orthogonalLoop=1;jettySize=auto;html=1;exitX=0;exitY=0.5;exitDx=0;exitDy=0;entryX=0.75;entryY=0;entryDx=0;entryDy=0;" parent="1" source="yE_XQOZgxl-4xmmyG7Xw-2" target="yE_XQOZgxl-4xmmyG7Xw-17" edge="1">
          <mxGeometry relative="1" as="geometry" />
        </mxCell>
        <mxCell id="yE_XQOZgxl-4xmmyG7Xw-22" style="edgeStyle=orthogonalEdgeStyle;rounded=0;orthogonalLoop=1;jettySize=auto;html=1;exitX=0;exitY=0.5;exitDx=0;exitDy=0;entryX=0.75;entryY=0;entryDx=0;entryDy=0;" parent="1" source="yE_XQOZgxl-4xmmyG7Xw-2" target="yE_XQOZgxl-4xmmyG7Xw-19" edge="1">
          <mxGeometry relative="1" as="geometry" />
        </mxCell>
        <mxCell id="yE_XQOZgxl-4xmmyG7Xw-2" value="MatHang" style="rounded=1;whiteSpace=wrap;html=1;" parent="1" vertex="1">
          <mxGeometry x="1240" y="130" width="120" height="60" as="geometry" />
        </mxCell>
        <mxCell id="yE_XQOZgxl-4xmmyG7Xw-11" value="" style="edgeStyle=orthogonalEdgeStyle;rounded=0;orthogonalLoop=1;jettySize=auto;html=1;" parent="1" source="yE_XQOZgxl-4xmmyG7Xw-5" target="yE_XQOZgxl-4xmmyG7Xw-10" edge="1">
          <mxGeometry relative="1" as="geometry" />
        </mxCell>
        <mxCell id="yE_XQOZgxl-4xmmyG7Xw-13" value="" style="edgeStyle=orthogonalEdgeStyle;rounded=0;orthogonalLoop=1;jettySize=auto;html=1;" parent="1" source="yE_XQOZgxl-4xmmyG7Xw-5" target="yE_XQOZgxl-4xmmyG7Xw-12" edge="1">
          <mxGeometry relative="1" as="geometry" />
        </mxCell>
        <mxCell id="yE_XQOZgxl-4xmmyG7Xw-16" style="edgeStyle=orthogonalEdgeStyle;rounded=0;orthogonalLoop=1;jettySize=auto;html=1;exitX=1;exitY=0.5;exitDx=0;exitDy=0;entryX=0.25;entryY=0;entryDx=0;entryDy=0;" parent="1" source="yE_XQOZgxl-4xmmyG7Xw-5" target="yE_XQOZgxl-4xmmyG7Xw-14" edge="1">
          <mxGeometry relative="1" as="geometry" />
        </mxCell>
        <mxCell id="yE_XQOZgxl-4xmmyG7Xw-5" value="KhachHang" style="rounded=1;whiteSpace=wrap;html=1;" parent="1" vertex="1">
          <mxGeometry x="80" y="320" width="120" height="60" as="geometry" />
        </mxCell>
        <mxCell id="yE_XQOZgxl-4xmmyG7Xw-20" value="" style="edgeStyle=orthogonalEdgeStyle;rounded=0;orthogonalLoop=1;jettySize=auto;html=1;" parent="1" source="yE_XQOZgxl-4xmmyG7Xw-8" target="yE_XQOZgxl-4xmmyG7Xw-19" edge="1">
          <mxGeometry relative="1" as="geometry" />
        </mxCell>
        <mxCell id="yE_XQOZgxl-4xmmyG7Xw-8" value="CuaHang" style="rounded=1;whiteSpace=wrap;html=1;" parent="1" vertex="1">
          <mxGeometry x="890" y="450" width="120" height="60" as="geometry" />
        </mxCell>
        <mxCell id="yE_XQOZgxl-4xmmyG7Xw-10" value="KhachHangDuLich" style="rounded=1;whiteSpace=wrap;html=1;" parent="1" vertex="1">
          <mxGeometry x="230" y="453" width="120" height="60" as="geometry" />
        </mxCell>
        <mxCell id="yE_XQOZgxl-4xmmyG7Xw-12" value="KhachHangBuuDien" style="rounded=1;whiteSpace=wrap;html=1;" parent="1" vertex="1">
          <mxGeometry x="400" y="453" width="120" height="60" as="geometry" />
        </mxCell>
        <mxCell id="yE_XQOZgxl-4xmmyG7Xw-18" value="" style="edgeStyle=orthogonalEdgeStyle;rounded=0;orthogonalLoop=1;jettySize=auto;html=1;" parent="1" source="yE_XQOZgxl-4xmmyG7Xw-14" target="yE_XQOZgxl-4xmmyG7Xw-17" edge="1">
          <mxGeometry relative="1" as="geometry" />
        </mxCell>
        <mxCell id="yE_XQOZgxl-4xmmyG7Xw-14" value="DonDatHang" style="rounded=1;whiteSpace=wrap;html=1;" parent="1" vertex="1">
          <mxGeometry x="630" y="453" width="120" height="60" as="geometry" />
        </mxCell>
        <mxCell id="yE_XQOZgxl-4xmmyG7Xw-17" value="MatHangDuocDat&lt;div&gt;&lt;br&gt;&lt;/div&gt;" style="rounded=1;whiteSpace=wrap;html=1;" parent="1" vertex="1">
          <mxGeometry x="760" y="630" width="120" height="60" as="geometry" />
        </mxCell>
        <mxCell id="yE_XQOZgxl-4xmmyG7Xw-19" value="MatHangDuocLuuTru" style="rounded=1;whiteSpace=wrap;html=1;" parent="1" vertex="1">
          <mxGeometry x="1030" y="620" width="120" height="60" as="geometry" />
        </mxCell>
        <mxCell id="yE_XQOZgxl-4xmmyG7Xw-23" value="&lt;h1 style=&quot;margin-top: 0px;&quot;&gt;Bảng phụ thuộc&lt;/h1&gt;&lt;div&gt;&lt;br&gt;&lt;/div&gt;&lt;div&gt;cái ở bên trên chắc chắn không phụ thuộc vào cái ở bên dưới&lt;/div&gt;&lt;div&gt;&lt;br&gt;&lt;/div&gt;&lt;div&gt;-&amp;gt; fake dữ liệu trước rồi get random&lt;/div&gt;&lt;div&gt;&lt;br&gt;&lt;/div&gt;&lt;div&gt;Fake bảng bên trên trước&lt;/div&gt;&lt;div&gt;&lt;br&gt;&lt;/div&gt;&lt;div&gt;Bảng nằm ngang nhau= fake theo cách nào cũng không phụ thuộc nhau&lt;/div&gt;" style="text;html=1;whiteSpace=wrap;overflow=hidden;rounded=0;" parent="1" vertex="1">
          <mxGeometry x="60" y="550" width="240" height="240" as="geometry" />
        </mxCell>
      </root>
    </mxGraphModel>
  </diagram>
  <diagram name="chọn class là nơi chứa" id="3l4ZehVaGJ0LGMgWt_dH">
    <mxGraphModel dx="2199" dy="611" grid="1" gridSize="10" guides="1" tooltips="1" connect="1" arrows="1" fold="1" page="1" pageScale="1" pageWidth="1169" pageHeight="827" math="0" shadow="0">
      <root>
        <mxCell id="xgPkQlGyJiGg04HMIIeK-0" />
        <mxCell id="xgPkQlGyJiGg04HMIIeK-1" parent="xgPkQlGyJiGg04HMIIeK-0" />
        <mxCell id="oKykPhtTVOydQAWe2mkg-19" value="Đơn hàng" style="rounded=1;whiteSpace=wrap;html=1;" parent="xgPkQlGyJiGg04HMIIeK-1" vertex="1">
          <mxGeometry x="90" y="90" width="120" height="60" as="geometry" />
        </mxCell>
        <mxCell id="oKykPhtTVOydQAWe2mkg-20" style="edgeStyle=orthogonalEdgeStyle;rounded=0;orthogonalLoop=1;jettySize=auto;html=1;exitX=0;exitY=0.5;exitDx=0;exitDy=0;entryX=1;entryY=0.5;entryDx=0;entryDy=0;endArrow=diamondThin;endFill=0;endSize=25;strokeWidth=2;" parent="xgPkQlGyJiGg04HMIIeK-1" source="oKykPhtTVOydQAWe2mkg-21" target="oKykPhtTVOydQAWe2mkg-23" edge="1">
          <mxGeometry relative="1" as="geometry" />
        </mxCell>
        <mxCell id="oKykPhtTVOydQAWe2mkg-21" value="Mặt hàng" style="rounded=1;whiteSpace=wrap;html=1;" parent="xgPkQlGyJiGg04HMIIeK-1" vertex="1">
          <mxGeometry x="600" y="90" width="120" height="60" as="geometry" />
        </mxCell>
        <mxCell id="oKykPhtTVOydQAWe2mkg-22" style="edgeStyle=orthogonalEdgeStyle;rounded=0;orthogonalLoop=1;jettySize=auto;html=1;exitX=0;exitY=0.5;exitDx=0;exitDy=0;entryX=1;entryY=0.5;entryDx=0;entryDy=0;endArrow=diamondThin;endFill=0;endSize=25;strokeWidth=2;" parent="xgPkQlGyJiGg04HMIIeK-1" source="oKykPhtTVOydQAWe2mkg-23" target="oKykPhtTVOydQAWe2mkg-19" edge="1">
          <mxGeometry relative="1" as="geometry" />
        </mxCell>
        <mxCell id="oKykPhtTVOydQAWe2mkg-23" value="Mặt hàng được đặt" style="whiteSpace=wrap;html=1;rounded=1;" parent="xgPkQlGyJiGg04HMIIeK-1" vertex="1">
          <mxGeometry x="340" y="90" width="120" height="60" as="geometry" />
        </mxCell>
        <mxCell id="oKykPhtTVOydQAWe2mkg-24" value="đơn hàng nhỏ hơn Mat Hang&lt;div&gt;= đơn hàng không dùng chung nhiều như mặt hàng&lt;/div&gt;&lt;div&gt;&lt;br&gt;&lt;/div&gt;&lt;div&gt;&lt;br&gt;&lt;/div&gt;&lt;div&gt;DonHang---1-----10----MatHangDuocDat------5000--------1----MatHang&lt;/div&gt;" style="text;html=1;whiteSpace=wrap;overflow=hidden;rounded=0;" parent="xgPkQlGyJiGg04HMIIeK-1" vertex="1">
          <mxGeometry x="50" y="220" width="420" height="120" as="geometry" />
        </mxCell>
        <mxCell id="oKykPhtTVOydQAWe2mkg-25" value="Đơn hàng" style="rounded=1;whiteSpace=wrap;html=1;" parent="xgPkQlGyJiGg04HMIIeK-1" vertex="1">
          <mxGeometry x="60" y="490" width="120" height="60" as="geometry" />
        </mxCell>
        <mxCell id="oKykPhtTVOydQAWe2mkg-26" style="edgeStyle=orthogonalEdgeStyle;rounded=0;orthogonalLoop=1;jettySize=auto;html=1;exitX=0;exitY=0.5;exitDx=0;exitDy=0;entryX=1;entryY=0.5;entryDx=0;entryDy=0;endArrow=diamondThin;endFill=0;endSize=25;strokeWidth=2;" parent="xgPkQlGyJiGg04HMIIeK-1" source="oKykPhtTVOydQAWe2mkg-29" target="oKykPhtTVOydQAWe2mkg-33" edge="1">
          <mxGeometry relative="1" as="geometry" />
        </mxCell>
        <mxCell id="oKykPhtTVOydQAWe2mkg-27" value="10000" style="edgeLabel;html=1;align=center;verticalAlign=middle;resizable=0;points=[];fontSize=16;" parent="oKykPhtTVOydQAWe2mkg-26" vertex="1" connectable="0">
          <mxGeometry x="0.72" y="-1" relative="1" as="geometry">
            <mxPoint x="13" y="-19" as="offset" />
          </mxGeometry>
        </mxCell>
        <mxCell id="oKykPhtTVOydQAWe2mkg-28" value="1" style="edgeLabel;html=1;align=center;verticalAlign=middle;resizable=0;points=[];fontSize=16;" parent="oKykPhtTVOydQAWe2mkg-26" vertex="1" connectable="0">
          <mxGeometry x="-0.808" y="1" relative="1" as="geometry">
            <mxPoint y="-21" as="offset" />
          </mxGeometry>
        </mxCell>
        <mxCell id="oKykPhtTVOydQAWe2mkg-29" value="Mặt hàng" style="rounded=1;whiteSpace=wrap;html=1;" parent="xgPkQlGyJiGg04HMIIeK-1" vertex="1">
          <mxGeometry x="620" y="490" width="120" height="60" as="geometry" />
        </mxCell>
        <mxCell id="oKykPhtTVOydQAWe2mkg-30" style="edgeStyle=orthogonalEdgeStyle;rounded=0;orthogonalLoop=1;jettySize=auto;html=1;exitX=0;exitY=0.5;exitDx=0;exitDy=0;entryX=1;entryY=0.5;entryDx=0;entryDy=0;endArrow=diamondThin;endFill=0;endSize=25;strokeWidth=2;" parent="xgPkQlGyJiGg04HMIIeK-1" source="oKykPhtTVOydQAWe2mkg-33" target="oKykPhtTVOydQAWe2mkg-25" edge="1">
          <mxGeometry relative="1" as="geometry" />
        </mxCell>
        <mxCell id="oKykPhtTVOydQAWe2mkg-31" value="1" style="edgeLabel;html=1;align=center;verticalAlign=middle;resizable=0;points=[];fontSize=16;" parent="oKykPhtTVOydQAWe2mkg-30" vertex="1" connectable="0">
          <mxGeometry x="0.6883" relative="1" as="geometry">
            <mxPoint x="5" y="-20" as="offset" />
          </mxGeometry>
        </mxCell>
        <mxCell id="oKykPhtTVOydQAWe2mkg-32" value="10" style="edgeLabel;html=1;align=center;verticalAlign=middle;resizable=0;points=[];fontSize=16;" parent="oKykPhtTVOydQAWe2mkg-30" vertex="1" connectable="0">
          <mxGeometry x="-0.8069" y="3" relative="1" as="geometry">
            <mxPoint x="-7" y="-23" as="offset" />
          </mxGeometry>
        </mxCell>
        <mxCell id="oKykPhtTVOydQAWe2mkg-33" value="Mặt hàng được đặt" style="whiteSpace=wrap;html=1;rounded=1;" parent="xgPkQlGyJiGg04HMIIeK-1" vertex="1">
          <mxGeometry x="310" y="490" width="120" height="60" as="geometry" />
        </mxCell>
        <mxCell id="oKykPhtTVOydQAWe2mkg-34" value="&lt;font style=&quot;font-size: 23px;&quot;&gt;2. &lt;/font&gt;do 1 MH có 10.000 MHDD, MH không thể là người chứa&amp;nbsp;" style="text;html=1;align=center;verticalAlign=middle;resizable=0;points=[];autosize=1;strokeColor=none;fillColor=none;" parent="xgPkQlGyJiGg04HMIIeK-1" vertex="1">
          <mxGeometry x="620" y="645" width="350" height="40" as="geometry" />
        </mxCell>
        <mxCell id="oKykPhtTVOydQAWe2mkg-35" value="&lt;font style=&quot;font-size: 20px;&quot;&gt;1. &lt;/font&gt;MHDD phải chứa ở trong DH hoặc MH, vì&lt;font style=&quot;font-size: 22px;&quot;&gt; &lt;b style=&quot;&quot;&gt;&lt;font style=&quot;&quot;&gt;tính đóng gói&lt;/font&gt;&lt;/b&gt; &lt;/font&gt;." style="text;html=1;align=center;verticalAlign=middle;resizable=0;points=[];autosize=1;strokeColor=none;fillColor=none;" parent="xgPkQlGyJiGg04HMIIeK-1" vertex="1">
          <mxGeometry x="-290" y="590" width="420" height="40" as="geometry" />
        </mxCell>
        <mxCell id="oKykPhtTVOydQAWe2mkg-36" value="&lt;font style=&quot;font-size: 22px;&quot;&gt;3.&lt;/font&gt; do 1 DH chỉ có 10 MHDD, gom vào DH để phù hợp&lt;font style=&quot;font-size: 23px;&quot;&gt;&lt;b&gt; tính đóng gói&lt;/b&gt;&lt;/font&gt;" style="text;html=1;align=center;verticalAlign=middle;resizable=0;points=[];autosize=1;strokeColor=none;fillColor=none;" parent="xgPkQlGyJiGg04HMIIeK-1" vertex="1">
          <mxGeometry x="-300" y="713" width="470" height="40" as="geometry" />
        </mxCell>
      </root>
    </mxGraphModel>
  </diagram>
</mxfile>
